<?xml version="1.0" encoding="utf-8"?>
<!-- Generator: Adobe Illustrator 23.0.1, SVG Export Plug-In . SVG Version: 6.00 Build 0)  -->
<svg version="1.1" id="Layer_1" xmlns="http://www.w3.org/2000/svg" xmlns:xlink="http://www.w3.org/1999/xlink" x="0px" y="0px"
	 viewBox="0 0 1920 1080" style="enable-background:new 0 0 1920 1080;" xml:space="preserve">
<style type="text/css">
	.st0{fill:#E6E6E6;}
	.st1{fill:#FF0000;}
	.st2{fill:none;}
	.st3{font-family:'AdobeGothicStd-Bold-KSCpc-EUC-H';}
	.st4{font-size:544.315px;}
</style>
<g>
	<g>
		<path class="st0" d="M69.44,1070.5c-33.05,0-59.94-26.89-59.94-59.95V69.44C9.5,36.39,36.39,9.5,69.44,9.5h1781.11
			c33.05,0,59.95,26.89,59.95,59.94v941.11c0,33.05-26.89,59.95-59.95,59.95H69.44z"/>
		<path class="st1" d="M1850.56,19c27.82,0,50.44,22.63,50.44,50.44v941.11c0,27.82-22.63,50.45-50.44,50.45H69.44
			c-27.82,0-50.44-22.63-50.44-50.45V69.44C19,41.63,41.63,19,69.44,19H1850.56 M1850.56,0H69.44C31.09,0,0,31.09,0,69.44v941.11
			c0,38.35,31.09,69.45,69.44,69.45h1781.11c38.35,0,69.44-31.09,69.44-69.45V69.44C1920,31.09,1888.91,0,1850.56,0L1850.56,0z"/>
	</g>
	<rect x="365.41" y="338.2" class="st2" width="1265.14" height="511.83"/>
	<text transform="matrix(1.2408 0 0 1 365.4111 775.8223)" class="st3 st4">TDT</text>
</g>
</svg>
