<?xml version="1.0" encoding="utf-8"?>
<!-- Generator: Adobe Illustrator 23.0.1, SVG Export Plug-In . SVG Version: 6.00 Build 0)  -->
<svg version="1.1" id="Layer_1" xmlns="http://www.w3.org/2000/svg" xmlns:xlink="http://www.w3.org/1999/xlink" x="0px" y="0px"
	 viewBox="0 0 1920 1080" style="enable-background:new 0 0 1920 1080;" xml:space="preserve">
<style type="text/css">
	.st0{fill:#E6E6E6;}
	.st1{fill:#FF0000;}
	.st2{fill:none;}
	.st3{font-family:'AdobeGothicStd-Bold-KSCpc-EUC-H';}
	.st4{font-size:70px;}
</style>
<g>
	<path class="st0" d="M518.44,529.07c-33.05,0-59.94-26.89-59.94-59.95s26.89-59.94,59.94-59.94h60.11
		c33.05,0,59.94,26.89,59.94,59.94s-26.89,59.95-59.94,59.95H518.44z"/>
	<path class="st1" d="M578.55,418.68c27.82,0,50.45,22.63,50.45,50.45c0,27.82-22.63,50.45-50.45,50.45h-60.11
		c-27.82,0-50.45-22.63-50.45-50.45c0-27.82,22.63-50.45,50.45-50.45H578.55 M578.55,399.68h-60.11
		c-38.35,0-69.45,31.09-69.45,69.45v0c0,38.35,31.09,69.45,69.45,69.45h60.11c38.35,0,69.45-31.09,69.45-69.45v0
		C648,430.78,616.91,399.68,578.55,399.68L578.55,399.68z"/>
</g>
<rect x="486.87" y="443.18" class="st2" width="131.13" height="65.82"/>
<text transform="matrix(1 0 0 1 486.8735 499.4561)" class="st3 st4">TDT</text>
</svg>
